# xmcd
#
# Track frame offsets: 
#        150
#        33675
#        64421
#        98274
#        133754
#        162968
#        191358
#        223828
#
# Disc length: 3215 seconds
#
# Revision: 0
# Processed by: cddbd v1.5.2PL0 Copyright (c) Steve Scherf et al.
# Submitted via: ExactAudioCopy v1.0b3
#
DISCID=700c8d08
DTITLE=Bryn Roberts and Lage Lund - Nightsong
DYEAR=2016
DGENRE=Jazz
TTITLE0=Nightsong
TTITLE1=Dreamsville
TTITLE2=Jogral
TTITLE3=Medicine Bow
TTITLE4=K W
TTITLE5=New Standards
TTITLE6=Circus Blues
TTITLE7=Mãos De Jardineiro
EXTD=
EXTT0=
EXTT1=
EXTT2=
EXTT3=
EXTT4=
EXTT5=
EXTT6=
EXTT7=
PLAYORDER=
